<?xml version="1.0" encoding="UTF-8"?>
<svg className="fill-current" width="1200pt" height="1200pt" version="1.1" viewBox="0 0 1200 1200" xmlns="http://www.w3.org/2000/svg">
 <g fill="#fff">
  <path d="m600 1087.5c-129.29 0-253.29-51.363-344.71-142.79-91.422-91.426-142.79-215.42-142.79-344.71s51.363-253.29 142.79-344.71c91.426-91.422 215.42-142.79 344.71-142.79s253.29 51.363 344.71 142.79c91.422 91.426 142.79 215.42 142.79 344.71-0.14844 129.25-51.559 253.16-142.95 344.55s-215.3 142.8-344.55 142.95zm0-900c-109.4 0-214.32 43.461-291.68 120.82-77.359 77.355-120.82 182.28-120.82 291.68s43.461 214.32 120.82 291.68c77.355 77.359 182.28 120.82 291.68 120.82s214.32-43.461 291.68-120.82c77.359-77.355 120.82-182.28 120.82-291.68-0.12891-109.36-43.629-214.21-120.96-291.54-77.332-77.332-182.18-120.83-291.54-120.96z"/>
  <path d="m600 787.5c-9.9453 0-19.484-3.9492-26.516-10.984-7.0352-7.0312-10.984-16.57-10.984-26.516v-300c0-13.398 7.1484-25.777 18.75-32.477 11.602-6.6992 25.898-6.6992 37.5 0 11.602 6.6992 18.75 19.078 18.75 32.477v300c0 9.9453-3.9492 19.484-10.984 26.516-7.0312 7.0352-16.57 10.984-26.516 10.984z"/>
  <path d="m750 637.5h-300c-13.398 0-25.777-7.1484-32.477-18.75-6.6992-11.602-6.6992-25.898 0-37.5 6.6992-11.602 19.078-18.75 32.477-18.75h300c13.398 0 25.777 7.1484 32.477 18.75 6.6992 11.602 6.6992 25.898 0 37.5-6.6992 11.602-19.078 18.75-32.477 18.75z"/>
 </g>
</svg>
