<svg className="fill-current" width="1200pt" height="1200pt" version="1.1" viewBox="0 0 1200 1200" xmlns="http://www.w3.org/2000/svg">
                    <g fill="#fff">
                      <path d="m977.19 252.23-745.95-0.070313c-86.023 0-156 69.973-156 155.99v376.12c0 86.008 69.977 156 156 156h744.45c86.031 0 156.02-69.984 156.02-156v-376.12c0-84.195-68.98-154.13-154.52-155.92zm79.398 532.04c0 44.598-36.289 80.875-80.895 80.875h-744.45c-44.598 0-80.879-36.277-80.879-80.875v-376.12c0-44.59 36.281-80.867 80.871-80.867l745.15 0.058594c44.238 0.93359 80.207 37.184 80.207 80.809z" />
                      <path d="m232.86 370.84h154.42v75.121h-154.42z" />
                      <path d="m232.86 496.04h154.42v75.121h-154.42z" />
                      <path d="m232.86 621.25h154.42v75.117h-154.42z" />
                      <path d="m232.86 746.45h154.42v75.125h-154.42z" />
                      <path d="m775.38 437.5-100.14 233.71-95.996-125.2-91.824 200.43v75.125h500.8v-459.19l-91.824 146.07z" />
                    </g>
                  </svg>