<?xml version="1.0" encoding="UTF-8"?>
<svg width="1200pt" class="current-fiill" height="1200pt" version="1.1" viewBox="0 0 1200 1200" xmlns="http://www.w3.org/2000/svg">
 <g fill="#000">
  <path d="m937.5 1125h-825c-20.699 0-37.5-16.801-37.5-37.5v-825c0-20.699 16.801-37.5 37.5-37.5h450c20.699 0 37.5 16.801 37.5 37.5s-16.801 37.5-37.5 37.5h-412.5v750h750v-412.5c0-20.699 16.801-37.5 37.5-37.5s37.5 16.801 37.5 37.5v450c0 20.699-16.801 37.5-37.5 37.5z"/>
  <path d="m525 825h-112.5c-20.699 0-37.5-16.801-37.5-37.5v-112.5c0-9.9766 3.9766-19.5 10.949-26.551l487.5-487.5c14.625-14.625 38.398-14.625 53.023 0l112.5 112.5c14.625 14.625 14.625 38.398 0 53.023l-487.5 487.5c-6.9727 7.0508-16.496 11.027-26.473 11.027zm-75-75h59.477l450-450-59.477-59.477-450 450z"/>
  <path d="m900 450c-9.6016 0-19.199-3.6758-26.551-10.949l-112.5-112.5c-14.625-14.625-14.625-38.398 0-53.023s38.398-14.625 53.023 0l112.5 112.5c14.625 14.625 14.625 38.398 0 53.023-7.2734 7.2734-16.871 10.949-26.473 10.949z"/>
 </g>
</svg>
