<?xml version="1.0" encoding="UTF-8"?>
<svg width="1200pt" height="1200pt" version="1.1" viewBox="0 0 1200 1200" xmlns="http://www.w3.org/2000/svg">
 <g fill="#fff">
  <path d="m700.98 510.16-140.94 131.54-61.391-54.766c-9.5312-8.4492-24.09-7.6406-32.586 1.8477-8.4961 9.5117-7.6641 24.113 1.8477 32.586l77.117 68.781c4.3945 3.9219 9.8711 5.8594 15.371 5.8594 5.6562 0 11.312-2.0742 15.754-6.1992l156.33-145.9c9.3086-8.6992 9.8047-23.301 1.125-32.633-8.6992-9.3047-23.277-9.8008-32.629-1.1211z"/>
  <path d="m1068.2 215.31c-6.6914-4.6172-15.23-5.5391-22.613-2.0742-36 15.922-73.152 24-110.54 24-177.23 0-315.23-180-316.62-181.85-4.3828-5.7695-11.305-9.2344-18.461-9.2344-7.1523 0-14.078 3.4609-18.461 9.2305-1.3828 1.8477-138.92 181.85-316.62 181.85-37.383 0-74.539-8.0781-110.54-24-7.3828-3.4609-15.918-2.5391-22.613 2.0781-6.4609 4.6133-10.152 12.461-9.6914 20.539 2.5391 35.305 64.848 867 475.15 917.77 0.92578 0.23047 1.8477 0.23047 2.7695 0.23047 0.92188 0 1.8477 0 2.7695-0.23047 410.31-50.77 472.85-882.46 475.16-917.77 0.69141-8.0781-3-15.926-9.6953-20.539zm-468.23 650.31c-146.54 0-265.62-119.08-265.62-265.62s119.08-265.61 265.62-265.61c146.54 0 265.62 119.07 265.62 265.61s-119.08 265.62-265.62 265.62z"/>
 </g>
</svg>
