<?xml version="1.0" encoding="utf-8"?>
<!-- Generator: Adobe Illustrator 27.2.0, SVG Export Plug-In . SVG Version: 6.00 Build 0)  -->
<svg version="1.1" id="hand-using-magnet-to-magnetize-human-resources"
	 xmlns="http://www.w3.org/2000/svg" xmlns:xlink="http://www.w3.org/1999/xlink" x="0px" y="0px" viewBox="0 0 1342.9 1190.3"
	 style="enable-background:new 0 0 1342.9 1190.3;" xml:space="preserve">
<style type="text/css">
	.st0{fill:#58595B;}
	.st1{fill:#414042;}
	.st2{fill:#FFFFFF;}
	.st3{fill:#FFA726;}
	.st4{fill:#FB8C00;}
	.st5{fill:#0080CE;}
	.st6{fill:#D33D3D;}
	.st7{fill:#1E88E5;}
	.st8{fill:#E54545;}
	.st9{fill:#45A7EF;}
	.st10{fill:#EF5350;}
	.st11{fill:#F7C19B;}
	.st12{fill:#EAB896;}
	.st13{fill:#F5F5F5;}
</style>
<rect y="951.3" class="st0" width="246.8" height="239"/>
<polygon class="st1" points="208.4,918.7 38.3,918.7 0,951.3 246.8,951.3 "/>
<path class="st2" d="M187.2,1147.7H59.6v-12.9c0-35.2,28.6-63.8,63.8-63.8l0,0c35.2,0,63.8,28.6,63.8,63.8V1147.7z"/>
<circle class="st2" cx="123.4" cy="1028.6" r="37.1"/>
<rect x="257" y="951.3" class="st0" width="246.8" height="239"/>
<polygon class="st1" points="465.4,918.7 295.4,918.7 257,951.3 503.8,951.3 "/>
<g>
	<path class="st2" d="M444.2,1147.7H316.6v-12.9c0-35.2,28.6-63.8,63.8-63.8l0,0c35.2,0,63.8,28.6,63.8,63.8L444.2,1147.7
		L444.2,1147.7z"/>
	<circle class="st2" cx="380.4" cy="1028.6" r="37.1"/>
</g>
<g>
	<rect x="514" y="815.5" class="st3" width="246.8" height="239"/>
	<polygon class="st4" points="722.5,782.9 552.4,782.9 514,815.5 760.8,815.5 	"/>
	<g>
		<path class="st2" d="M701.2,1011.9H573.6V999c0-35.2,28.6-63.8,63.8-63.8l0,0c35.2,0,63.8,28.6,63.8,63.8L701.2,1011.9
			L701.2,1011.9z"/>
		<circle class="st2" cx="637.4" cy="892.8" r="37.1"/>
	</g>
</g>
<g>
	<rect x="771.1" y="951.3" class="st0" width="246.8" height="239"/>
	<polygon class="st1" points="979.5,918.7 809.4,918.7 771.1,951.3 1017.8,951.3 	"/>
	<g>
		<path class="st2" d="M958.3,1147.7H830.7v-12.9c0-35.2,28.6-63.8,63.8-63.8l0,0c35.2,0,63.8,28.6,63.8,63.8L958.3,1147.7
			L958.3,1147.7z"/>
		<circle class="st2" cx="894.4" cy="1028.6" r="37.1"/>
	</g>
</g>
<g>
	<rect x="1028.1" y="951.3" class="st0" width="246.8" height="239"/>
	<polygon class="st1" points="1236.5,918.7 1066.4,918.7 1028.1,951.3 1274.8,951.3 	"/>
	<g>
		<path class="st2" d="M1215.3,1147.7h-127.6v-12.9c0-35.2,28.6-63.8,63.8-63.8l0,0c35.2,0,63.8,28.6,63.8,63.8L1215.3,1147.7
			L1215.3,1147.7z"/>
		<circle class="st2" cx="1151.5" cy="1028.6" r="37.1"/>
	</g>
</g>
<g>
	<path class="st5" d="M776,648.6l-70-0.5l1.1-184.4c0.2-25.1-23.8-45.6-53.3-45.9l0.4-59.3c68.2,0.4,123.3,47.8,123,105.7L776,648.6
		z"/>
	<path class="st5" d="M665.7,419c-3.8-0.7-7.8-1.1-11.8-1.2l0.4-59.4c3.1,0,6.2,0.2,9.2,0.4c16,1.1,31.1,4.8,44.7,10.6
		c0.3,5.3,0.3,10.3,0.3,14.9c-0.1,8.9-0.6,16.7-1.5,23.5c-0.1,0.4-0.1,0.9-0.2,1.3c-0.9,6.2-2.1,11.6-3.4,16.3
		c-0.5,1.9-1.2,3.7-1.8,5.3c-1.1,2.8-2.2,5.3-3.5,7.4C690.6,428.6,679.2,421.7,665.7,419z M777.1,464.1c0-0.8,0-1.6,0-2.4l-1.4,12.8
		c-0.5,4,0.1,8,1.3,11.6L777.1,464.1z"/>
	<path class="st5" d="M654.2,358.5l-0.4,59.3c8.3,0.1,16.3,1.8,23.3,4.7c0.8-2.1,1.6-4.5,2.4-6.9c1.8-6.1,3.3-13.1,4.4-21.1
		c0.1-0.5,0.2-1.1,0.2-1.6c1.1-8.8,1.9-18.9,2-30.6C675.9,359.8,665.2,358.6,654.2,358.5z"/>
	<path class="st6" d="M598.7,647.4l-69.9-0.4l1.1-184.4c0-0.9,0-1.8,0.1-2.7c0.1-1,0.1-1.8,0.2-2.6v-0.2c0.3-3.4,0.6-6.9,1.3-10.2
		c0.6-3.6,1.4-7,2.6-10.4c0-0.1,0-0.1,0-0.1c0.5-1.4,0.9-2.8,1.4-4.1c0.5-1.1,0.8-2.2,1.3-3.3c0.2-0.3,0.2-0.6,0.4-0.9
		c1.1-2.7,2.4-5.4,3.8-8c0.5-1,1.1-2,1.6-2.9c0.3-0.4,0.5-0.9,0.8-1.4c0.6-1.1,1.3-2.1,2-3.1c0.1-0.1,0.2-0.2,0.2-0.2
		c0.8-1.2,1.6-2.3,2.4-3.5c0.7-0.9,1.4-1.9,2.1-2.8c0.5-0.7,1.1-1.4,1.6-2.1c0.8-1,1.6-2,2.4-3c0.7-0.8,1.3-1.5,2.1-2.2
		c8.1-8.9,18-16.7,29-22.9c0.6-0.4,1.2-0.6,1.8-1c2.7-1.5,5.6-2.9,8.4-4.2c1.2-0.6,2.6-1.1,3.8-1.6c4-1.8,8.2-3.2,12.5-4.6
		c1-0.3,1.9-0.6,2.9-0.9c1.9-0.5,3.9-1.1,5.8-1.5c1.8-0.4,3.7-0.8,5.6-1.2c0.2-0.1,0.3-0.2,0.5-0.2c1-0.2,1.9-0.4,2.9-0.5
		c2-0.3,4-0.6,6.1-0.9c2.1-0.3,4.1-0.5,6.2-0.6c2.1-0.2,4.2-0.3,6.2-0.4c2.2-0.1,4.4-0.1,6.6-0.1l-0.4,59.3h-0.1
		c-1.4,0-2.7,0.1-4,0.2c-2.6,0.1-5.2,0.4-7.7,0.9c-1.2,0.2-2.4,0.5-3.7,0.8c-1.2,0.3-2.4,0.6-3.6,1c-1.2,0.4-2.3,0.7-3.5,1.2
		c-2.3,0.9-4.5,1.9-6.5,3c-4.3,2.3-8.2,5.2-11.6,8.4c-0.7,0.6-1.4,1.3-2,2c-0.6,0.6-1.1,1.3-1.7,2c-1.6,1.9-3,3.9-4.3,6
		c-1.2,2-2.2,4.1-3,6.3c-0.3,0.7-0.5,1.4-0.7,2.1c-0.3,0.9-0.5,1.8-0.7,2.7c-0.2,0.6-0.3,1.2-0.4,1.8c-0.2,0.9-0.3,1.8-0.4,2.8
		c-0.1,0.6-0.2,1.2-0.2,1.8c-0.1,0.8-0.1,1.5-0.1,2.3L598.7,647.4z"/>
	<path class="st7" d="M529.9,420.1c-1.4,2.6-2.7,5.3-3.8,8C527.1,425.4,528.4,422.8,529.9,420.1z M765.1,648.5l-70-0.5l1.1-184.4
		c0.2-25.1-23.8-45.6-53.3-45.9l0.4-59.3c68.2,0.4,123.3,47.8,123,105.7L765.1,648.5z"/>
	<path class="st8" d="M587.8,647.4l-69.9-0.4l1.1-184.4c0-0.9,0-1.8,0.1-2.7c0.1-1,0.1-1.8,0.2-2.6v-0.2c0.3-3.4,0.6-6.9,1.3-10.2
		c0.6-3.6,1.4-7,2.6-10.4c0-0.1,0-0.1,0-0.1c0.5-1.4,0.9-2.8,1.4-4.1c0.5-1.1,0.8-2.2,1.3-3.3c0.2-0.3,0.2-0.6,0.4-0.9
		c1.1-2.7,2.4-5.4,3.8-8c0.5-1,1.1-2,1.6-2.9c0.3-0.4,0.5-0.9,0.8-1.4c0.6-1.1,1.3-2.1,2-3.1c0.1-0.1,0.2-0.2,0.2-0.2
		c0.8-1.2,1.6-2.3,2.4-3.5c0.7-0.9,1.4-1.9,2.1-2.8c0.5-0.7,1.1-1.4,1.6-2.1c0.8-1,1.6-2,2.4-3c0.7-0.8,1.3-1.5,2.1-2.2
		c8.1-8.9,18-16.7,29-22.9c0.6-0.4,1.2-0.6,1.8-1c2.7-1.5,5.6-2.9,8.4-4.2c1.2-0.6,2.6-1.1,3.8-1.6c4-1.8,8.2-3.2,12.5-4.6
		c1-0.3,1.9-0.6,2.9-0.9c1.9-0.5,3.9-1.1,5.8-1.5c1.8-0.4,3.7-0.8,5.6-1.2c0.2-0.1,0.3-0.2,0.5-0.2c1-0.2,1.9-0.4,2.9-0.5
		c2-0.3,4-0.6,6.1-0.9c2.1-0.3,4.1-0.5,6.2-0.6c2.1-0.2,4.2-0.3,6.2-0.4c2.2-0.1,4.4-0.1,6.6-0.1l-0.4,59.3H643
		c-1.4,0-2.7,0.1-4,0.2c-2.6,0.1-5.2,0.4-7.7,0.9c-1.2,0.2-2.4,0.5-3.7,0.8c-1.2,0.3-2.4,0.6-3.6,1c-1.2,0.4-2.3,0.7-3.5,1.2
		c-2.3,0.9-4.5,1.9-6.5,3c-4.3,2.3-8.2,5.2-11.6,8.4c-0.7,0.6-1.4,1.3-2,2c-0.6,0.6-1.1,1.3-1.7,2c-1.6,1.9-3,3.9-4.3,6
		c-1.2,2-2.2,4.1-3,6.3c-0.3,0.7-0.5,1.4-0.7,2.1c-0.3,0.9-0.5,1.8-0.7,2.7c-0.2,0.6-0.3,1.2-0.4,1.8c-0.2,0.9-0.3,1.8-0.4,2.8
		c-0.1,0.6-0.2,1.2-0.2,1.8c-0.1,0.8-0.1,1.5-0.1,2.3L587.8,647.4z"/>
	<path class="st8" d="M643.4,358.4c-2.2,0-4.4,0-6.6,0.1C638.9,358.4,641.1,358.3,643.4,358.4L643.4,358.4z M643,417.7
		c-1.4,0-2.7,0.1-4,0.1C640.2,417.7,641.5,417.7,643,417.7L643,417.7L643,417.7z M638.9,417.9c-2.6,0.2-5.2,0.5-7.7,0.9
		C633.7,418.3,636.3,418,638.9,417.9z M620.5,421.8c-2.3,0.9-4.5,1.9-6.5,3C616,423.6,618.3,422.6,620.5,421.8z M520.5,447
		c-0.6,3.3-1.1,6.7-1.3,10.2C519.4,453.7,519.8,450.3,520.5,447z M517.8,646.9L517.8,646.9l1.1-184.4c0-0.9,0.1-1.8,0.1-2.7
		c-0.1,0.9-0.1,1.8-0.1,2.7L517.8,646.9z"/>
	<polygon class="st9" points="766,507.9 695.8,541.7 696,515.3 766.2,481.5 	"/>
	<polygon class="st10" points="517.9,627.5 518.1,601.1 588.3,567.2 588.1,593.6 	"/>
	<path class="st9" d="M762.7,438.4l-66.4,32l0.1-6.6c0-3.5-0.4-6.9-1.3-10.3l62-29.9C759.3,428.3,761.3,433.3,762.7,438.4z"/>
	<polygon class="st10" points="518.4,556.1 518.5,538.5 588.7,504.7 588.6,522.3 	"/>
	<path class="st10" d="M518.9,479.6l0.1-17.1c0.1-9,1.4-17.7,4-26l120.2-58l-0.3,39.3c-21.3-0.2-39.7,10.3-48.5,25.4L518.9,479.6z"
		/>
	<path class="st9" d="M643,417.7l0.3-39.3l33.3-16c16.4,4,31.5,10.8,44.3,19.8l-74,35.7C645.6,417.8,644.3,417.8,643,417.7z"/>
	<polygon class="st7" points="770.8,747.7 761.1,686.5 753.7,703.1 739.5,674.9 749.7,732.4 757.1,715.8 	"/>
	<polygon class="st7" points="710.8,765.4 726.6,707.8 713.6,716.1 712.5,682.5 698.7,737.4 711.6,729.2 	"/>
	<polygon class="st10" points="591.1,750.6 581.4,689.4 574.1,706 559.8,677.8 570,735.2 577.5,718.8 	"/>
	<polygon class="st10" points="531.2,768.4 546.9,710.7 534.1,719.1 532.8,685.4 519,740.4 531.9,732.2 	"/>
	<g>
		<path class="st11" d="M793.2,492.8c-7.1-1.6-12.5-6.6-14.8-13.1c-1-2.8-1.3-5.9-1-9l1.1-9.8l9.6-84.7v-0.3l-24.5,40
			c-5.4-9-12.3-17.2-20.4-24.4c-1.4-1.3-2.9-2.6-4.4-3.8c3.7-9.7,6.9-19.3,9.4-28.8c5-14.8,5.3-30.9,0.6-45.9l-2.3-7.2
			c-1.5-5-7.3-7.4-12-4.9l-18.1,9.7c-8.1,4.4-12.5,13.3-11.4,22.4c1.7,13.6,2.7,25.8,3.1,36.5c0.3,5.3,0.3,10.3,0.3,14.9
			c-0.1,8.9-0.6,16.7-1.5,23.5c-0.1,0.4-0.1,0.9-0.2,1.3c-0.9,6.2-2.1,11.6-3.4,16.3c-0.5,1.9-1.2,3.7-1.8,5.3
			c-1.1,2.8-2.2,5.3-3.5,7.4c-1.1,2-2.2,3.7-3.5,5.3c-4.4,5.5-10.9,7-16.7,5.4l-0.1-0.1c-1.1-0.3-2.1-0.7-3-1.2
			c-0.3-0.2-0.6-0.3-0.9-0.5c-4-2.2-6.9-6.2-7.7-11.3c-0.1-0.3-0.1-0.5-0.1-0.9c-0.1-0.2-0.1-0.6-0.1-1l-0.4-10.6l-0.2-4.1
			l-0.5-13.8l-1.3-40c-0.1-0.9-0.1-1.8-0.2-2.6c-0.1-0.9-0.2-1.8-0.3-2.7c-0.1-0.4-0.1-0.7-0.2-1.1c-0.2-1.4-0.4-2.8-0.6-4.1
			c-0.2-0.9-0.4-1.8-0.5-2.6c-0.4-1.8-0.9-3.3-1.4-5c-0.3-0.9-0.5-1.7-0.8-2.5c-1.2-3.2-2.7-6.4-4.4-9.4c-0.9-1.5-1.8-3-2.7-4.5
			c-1-1.4-2.1-2.9-3.1-4.2c-12.9-16-23.2-33.9-30.7-52.9c-0.9-2.3-1.8-4.7-2.7-7.1c-1.7-4.8-3.2-9.7-4.6-14.6
			c-1.3-4.9-2.4-9.9-3.3-14.9c-1-5-1.8-10.1-2.4-15.2c-0.3-2.6-0.5-5.1-0.7-7.7c-0.1-0.8-0.2-1.6-0.3-2.4c-0.2-0.9-0.3-1.6-0.5-2.4
			c-0.4-1.6-0.9-3.1-1.5-4.6c-0.8-1.7-1.6-3.2-2.7-4.8c-0.8-1.3-1.8-2.4-2.7-3.5l-6.2-6.5l-18-19.2L542,137.2l15.1-5.8l85.5-32.9
			c0.4,0.5,0.8,1.1,1.2,1.6c5.3,7.3,11.1,14.5,17.3,21.2c31.5,35,71,62.1,86.7,72.3c7.1,4.7,14.2,9.6,21,14.8
			c39,30,46.3,47.7,47,55.7c0.5,5.2,1.8,10.3,4.1,15c13.2,26.1,24.2,52,33.5,77.7c2.7,7.2,0.1,15.4-6.4,19.7l-6,4l-4.2,2.8
			l10.6,51.8c0.7,3.7,0.5,7.3-0.7,10.6c-1.8,5.1-5.7,9.4-10.9,11.6c-1.7,0.8-3.5,1.1-5.3,1c-4.3-0.2-8.4-2.6-10.6-6.6l-6.5-12.5
			l-6.3,44.3c-0.2,0.8-0.3,1.4-0.6,2.2C804.4,490.9,798.9,494,793.2,492.8z"/>
		<path class="st12" d="M542,137.1l31.3,33.4l18.1,19.2l6.2,6.5c1,1.1,1.9,2.2,2.7,3.5c1.1,1.5,2,3.1,2.7,4.8c0.6,1.4,1.2,3,1.6,4.6
			c0.2,0.8,0.4,1.6,0.5,2.4c0.2,0.8,0.2,1.6,0.3,2.4c0.2,2.6,0.5,5.2,0.7,7.7c0.6,5.1,1.4,10.2,2.3,15.2c1,5,2.1,10,3.4,14.9
			c1.4,4.9,2.9,9.8,4.6,14.6c0.9,2.4,1.8,4.8,2.7,7.2c7.5,19,17.7,36.8,30.7,52.9c1.1,1.4,2.1,2.8,3.1,4.3c1,1.4,1.9,2.9,2.8,4.5
			c1.8,3,3.2,6.2,4.4,9.5c0.3,0.8,0.6,1.6,0.8,2.4c0.5,1.6,1.1,3.3,1.4,5c0.2,0.9,0.4,1.8,0.5,2.6c0.3,1.6,0.6,3.4,0.8,5.2
			c0.1,0.9,0.2,1.8,0.3,2.6c0.1,0.9,0.1,1.8,0.2,2.7l1.3,40.1l0.6,18l0.4,10.6c0,0.3,0,0.6,0.1,1c0,0.3,0.1,0.6,0.1,0.9
			c0.7,5.1,3.7,9,7.7,11.3c0.3,0.2,0.6,0.4,0.9,0.5c1,0.5,2,0.9,3,1.2c-2.6-2.8-4.1-6.5-4.2-11l-0.2-15.6l-0.2-17.8l-0.4-38.6
			c-0.1-7.4-1.4-14.7-3.7-21.5c-2.4-6.9-5.9-13.4-10.3-19.2c-13.2-17.2-23.6-36.1-31-56.2c-7.4-20.1-11.8-41.2-13-62.8
			c-0.4-7-3.1-13.6-7.8-18.8l-6.1-6.8l-17.7-19.8l-26.2-29.2L542,137.1z M788.2,375.9l-10.7,94.8c-1.1,10.3,5.6,19.9,15.7,22.1
			l-1.8-3.5c-4.3-8.5-6.3-18-6-27.5L788.2,375.9z M743.2,391.4c-1.4-1.3-2.9-2.6-4.4-3.8c3.7-9.7,6.9-19.3,9.4-28.8
			c5-14.8,5.3-30.9,0.6-45.9l-2.3-7.2l2.3,7.1c6.9,21.4,6.7,44.5-0.5,65.7C748.3,378.5,746.3,383.7,743.2,391.4z M812,420.6
			l1.1,18.6l6.5,12.5c2.1,4.1,6.3,6.5,10.6,6.6L812,420.6z"/>
		<polygon class="st12" points="836.7,383.2 819.4,338.6 840.9,380.4 		"/>
		<g>
			<polygon class="st13" points="494.6,140.1 563.4,217.3 675.6,106.9 613.8,37.6 			"/>
			<polygon class="st1" points="533.6,210.1 362,0 604.6,0 665.3,78.4 			"/>
			<path class="st13" d="M522.7,160c-3.7,3.3-4.1,9.1-0.7,12.9c3.3,3.7,9.1,4.1,12.9,0.7c3.7-3.3,4.1-9.1,0.7-12.9
				C532.2,157,526.4,156.6,522.7,160z M481.3,113.5c-3.7,3.3-4.1,9.1-0.7,12.9c3.3,3.7,9.1,4.1,12.9,0.7c3.7-3.3,4.1-9.1,0.7-12.9
				C490.8,110.5,485.1,110.2,481.3,113.5z M501.3,136.5c-3.7,3.3-4.1,9.1-0.7,12.9c3.3,3.7,9.1,4.1,12.9,0.7
				c3.7-3.3,4.1-9.1,0.7-12.9C510.8,133.5,505.1,133.2,501.3,136.5z"/>
		</g>
	</g>
</g>
</svg>
