<?xml version="1.0" encoding="UTF-8"?>
<svg width="1200pt" height="1200pt" version="1.1" viewBox="0 0 1200 1200" xmlns="http://www.w3.org/2000/svg">
 <path d="m600 600c137.84 0 250-112.16 250-250s-112.16-250-250-250-250 112.16-250 250 112.16 250 250 250zm0-400c82.715 0 150 67.285 150 150s-67.285 150-150 150-150-67.285-150-150 67.285-150 150-150zm449.85 839.33c-5.6602-215.65-182.86-389.33-399.85-389.33h-100c-220.55 0-400 179.45-400 400 0 27.613 22.387 50 50 50h800c0.33984-0.050781 0.68359-0.023438 1 0 27.613 0 50-22.387 50-50 0-3.6641-0.39062-7.2266-1.1484-10.668zm-795.68-39.332c23.875-141.7 147.44-250 295.82-250h100c148.39 0 271.95 108.3 295.82 250z" fill="#fff"/>
</svg>
