<?xml version="1.0" encoding="UTF-8"?>
<svg width="1200pt" height="1200pt" version="1.1" viewBox="0 0 1200 1200" xmlns="http://www.w3.org/2000/svg">
 <path d="m852.76 598.64c48.562-188.87-65.594-382.04-254.45-430.61-188.89-48.574-382.05 65.578-430.63 254.45-48.562 188.88 65.578 382.03 254.46 430.62 188.86 48.562 382.04-65.582 430.62-254.46zm-406.71 161.43c-137.59-35.375-220.73-176.11-185.35-313.69 35.387-137.58 176.1-220.73 313.67-185.35 137.59 35.375 220.74 176.1 185.35 313.68-35.387 137.58-176.07 220.74-313.67 185.36zm582.96 245.28c0.023437-0.011719 0.035156-0.023437 0.046875-0.023437-0.15625 0.21484-0.35938 0.44531-0.52734 0.64844-0.14453 0.20312-0.27734 0.37109-0.42188 0.57422-0.023437 0.011718-0.035156 0.011718-0.058594 0.035156-1.8125 2.207-4.1172 4.9336-5.9297 6.7812l-7.3203 7.4648c-21.227 21.648-49.055 28.777-62.184 15.91l-210-205.81c11.34-9.3945 26.328-23.102 33.156-29.375l-0.023438-0.011719c18.996-17.184 25.633-27.215 29.316-30.707 7.3438-6.9375 18.121-21.898 21.707-25.766l210 205.8c11.547 11.34 7.7656 34.367-7.7617 54.48zm-598.98-639.01c-53.426 36.18-92.664 104.22-76.391 168.76 5.9414 23.508-28.934 34.32-34.859 10.859-21.047-83.449 26.902-167.02 93.312-212 19.848-13.441 37.715 18.996 17.938 32.387z" fill="#fff"/>
</svg>
