<?xml version="1.0" encoding="UTF-8"?>
<svg width="1200pt" height="1200pt" version="1.1" viewBox="0 0 1200 1200" xmlns="http://www.w3.org/2000/svg">
 <g fill="#00000">
  <path d="m1040.7 550.9c-5.1562-28.945-10.312-57.891-15.469-86.719-1.9922 15-3.9844 30.117-5.8594 45.117 24.023-31.641 47.93-63.398 71.953-95.039 3.3984-4.4531 6.7969-8.9062 10.195-13.477 1.9922-4.6875 3.9844-9.375 5.8594-13.945 2.4609-7.7344 2.8125-15.586 1.0547-23.32 0-5.2734-1.4062-10.195-3.9844-14.766-2.3438-7.2656-6.4453-13.594-12.07-18.867-35.391-43.945-70.664-87.891-106.05-131.84-4.9219-6.0938-9.8438-12.305-14.766-18.398-11.719-14.531-39.727-22.031-56.953-15.117-38.438 15.352-76.992 30.82-115.43 46.172-5.3906 2.2266-10.898 4.3359-16.289 6.5625 15 1.9922 30.117 3.9844 45.117 5.8594-21.68-11.367-43.359-22.734-65.039-34.102 9.0234 11.719 17.93 23.32 26.953 35.039-10.898-36.68-21.68-73.242-32.578-109.92-1.5234-5.1562-3.0469-10.43-4.5703-15.586-7.3828-24.727-30.352-43.008-56.484-43.008h-168.4-23.672c-26.133 0-49.219 18.281-56.484 43.008-10.898 36.68-21.68 73.242-32.578 109.92-1.5234 5.1562-3.0469 10.43-4.5703 15.586 9.0234-11.719 17.93-23.32 26.953-35.039-21.68 11.367-43.359 22.734-65.039 34.102 15-1.9922 30.117-3.9844 45.117-5.8594-38.438-15.352-76.992-30.82-115.43-46.172-5.3906-2.2266-10.898-4.3359-16.289-6.5625-17.344-6.9141-45.352 0.58594-56.953 15.117-35.391 43.945-70.664 87.891-106.05 131.84-4.9219 6.0938-9.8438 12.305-14.766 18.398-3.0469 3.9844-6.0938 7.8516-9.1406 11.836-4.3359 6.6797-6.5625 13.945-6.9141 21.797-1.5234 11.719-0.58594 27.422 6.9141 37.383 24.023 31.641 47.93 63.398 71.953 95.039 3.3984 4.4531 6.7969 8.9062 10.195 13.477-1.9922-15-3.9844-30.117-5.8594-45.117-5.1562 28.945-10.312 57.891-15.469 86.719 9.0234-11.719 17.93-23.32 26.953-35.039-35.273 17.695-70.664 35.273-105.94 52.969-4.9219 2.4609-9.9609 4.9219-14.883 7.5-3.9844 3.0469-7.8516 6.0938-11.836 9.1406-5.7422 5.2734-9.7266 11.602-12.07 18.867-5.2734 12.656-5.7422 24.609-2.9297 38.203 10.898 52.148 21.797 104.18 32.578 156.33 1.5234 7.2656 3.0469 14.531 4.5703 21.914 1.9922 4.6875 3.9844 9.375 5.8594 13.945 3.6328 6.7969 8.6719 12.305 15.117 16.406 10.898 8.4375 21.68 11.367 35.508 12.539 40.664 3.6328 81.211 7.2656 121.88 10.781 5.8594 0.46875 11.719 1.0547 17.578 1.5234-16.875-9.7266-33.75-19.336-50.625-29.062 15 20.625 30 41.367 44.883 61.992-2.6953-9.8438-5.3906-19.688-7.9688-29.531-4.5703 37.5-9.0234 75.117-13.594 112.62-0.58594 5.2734-1.2891 10.664-1.875 15.938-2.2266 18.516 12.422 42.656 29.062 50.625 48.398 23.086 96.797 46.172 145.2 69.258 6.9141 3.2812 13.711 6.5625 20.625 9.8438 12.188 5.8594 23.672 8.7891 37.383 6.9141 12.422-1.6406 24.727-6.7969 33.633-16.172 25.781-27.07 51.562-54.258 77.227-81.328 3.6328-3.8672 7.3828-7.7344 11.016-11.602-13.828 5.7422-27.656 11.484-41.484 17.109h89.883c-13.828-5.7422-27.656-11.484-41.484-17.109 25.781 27.07 51.562 54.258 77.227 81.328 3.6328 3.8672 7.3828 7.7344 11.016 11.602 8.7891 9.2578 21.211 14.414 33.633 16.172 13.711 1.875 24.727-0.9375 37.383-6.9141 48.398-23.086 96.797-46.172 145.2-69.258 6.9141-3.2812 13.711-6.5625 20.625-9.8438 16.523-7.8516 31.289-31.992 29.062-50.625-4.5703-37.5-9.0234-75.117-13.594-112.62-0.58594-5.2734-1.2891-10.664-1.875-15.938-2.6953 9.8438-5.3906 19.688-7.9688 29.531 15-20.625 30-41.367 45-61.992-16.875 9.7266-33.75 19.336-50.625 29.062 40.664-3.6328 81.211-7.2656 121.88-10.781 5.8594-0.46875 11.719-1.0547 17.578-1.5234 5.1562-0.70312 10.43-1.4062 15.586-2.1094 7.6172-1.7578 14.297-5.2734 19.922-10.43 9.4922-7.3828 18.398-18.281 20.977-30.469 10.898-52.148 21.797-104.18 32.578-156.33 1.5234-7.2656 3.0469-14.531 4.5703-21.914 2.8125-13.242 2.3438-25.547-2.9297-38.203-4.6875-11.016-12.891-22.5-24.023-28.008-35.273-17.695-70.664-35.273-105.94-52.969-4.9219-2.4609-9.9609-4.9219-14.883-7.5-14.18-7.0312-29.531-10.195-45.117-5.8594-13.594 3.75-28.359 14.297-35.039 26.953-7.1484 13.594-10.781 30.117-5.8594 45.117 4.5703 13.945 13.359 28.242 26.953 35.039 35.273 17.695 70.664 35.273 105.94 52.969 4.9219 2.4609 9.9609 4.9219 14.883 7.5-9.0234-22.031-17.93-44.062-26.953-66.211-10.898 52.148-21.797 104.18-32.578 156.33-1.5234 7.2656-3.0469 14.531-4.5703 21.914 18.867-14.297 37.617-28.711 56.484-43.008-46.406 4.1016-92.812 7.9688-139.22 12.422-5.3906 0.46875-2.4609-1.5234-15.82 2.1094-15.938 4.3359-25.664 14.18-35.039 26.953-0.82031 1.1719-1.6406 2.2266-2.4609 3.3984l-11.25 15.469c-9.0234 12.422-18.047 24.844-26.953 37.266-8.9062 12.305-13.242 26.953-11.367 42.07 1.5234 13.125 3.1641 26.133 4.6875 39.258 3.2812 27.539 6.6797 55.078 9.9609 82.617 9.7266-16.875 19.336-33.75 29.062-50.625-48.398 23.086-96.797 46.172-145.2 69.258-6.9141 3.2812-13.711 6.5625-20.625 9.8438 23.672 3.0469 47.344 6.0938 71.016 9.1406-16.289-17.227-32.695-34.336-48.984-51.562-10.195-10.664-20.273-21.328-30.469-31.992-2.6953-2.8125-5.2734-5.625-7.9688-8.4375-11.719-12.07-27.188-17.93-43.945-18.164-27.305-0.23438-54.609 0-81.914 0-17.578 0-34.688 3.9844-47.93 17.109-1.5234 1.5234-2.8125 3.0469-4.3359 4.5703-8.9062 9.375-17.812 18.75-26.836 28.242-19.102 20.039-38.203 40.195-57.188 60.234 23.672-3.0469 47.344-6.0938 71.016-9.1406-48.398-23.086-96.797-46.172-145.2-69.258-6.9141-3.2812-13.711-6.5625-20.625-9.8438 9.7266 16.875 19.336 33.75 29.062 50.625 2.8125-23.32 5.625-46.758 8.4375-70.078 1.7578-14.883 3.6328-29.648 5.3906-44.531 1.875-16.055 3.6328-29.18-7.1484-44.766-14.18-20.508-29.297-40.547-43.945-60.703-9.375-12.891-19.219-22.617-35.156-27.07-13.359-3.6328-10.43-1.6406-15.82-2.1094-0.9375-0.11719-1.7578-0.11719-2.6953-0.23438-4.1016-0.35156-8.2031-0.70312-12.305-1.0547-14.648-1.2891-29.414-2.5781-44.062-3.8672-26.719-2.3438-53.438-4.8047-80.156-7.1484 18.867 14.297 37.617 28.711 56.484 43.008-10.898-52.148-21.797-104.18-32.578-156.33-1.5234-7.2656-3.0469-14.531-4.5703-21.914-9.0234 22.031-17.93 44.062-26.953 66.211 21.68-10.898 43.477-21.68 65.156-32.578l42.188-21.094c18.516-9.2578 35.742-18.75 40.547-42.656 5.5078-27.07 9.7266-54.375 14.531-81.445 3.0469-16.758 5.2734-34.688-5.2734-49.805-1.6406-2.3438-3.3984-4.5703-5.1562-6.7969-8.4375-11.133-16.875-22.266-25.312-33.516-17.227-22.734-34.336-45.352-51.562-68.086-3.0469 23.672-6.0938 47.344-9.1406 71.016 35.391-43.945 70.664-87.891 106.05-131.84 4.9219-6.0938 9.8438-12.305 14.766-18.398-18.984 5.0391-37.969 10.078-56.953 15.117 20.859 8.3203 41.719 16.641 62.578 25.078 22.852 9.1406 45.586 18.984 68.672 27.422 23.438 8.5547 45.586-5.7422 65.508-16.172 13.359-7.0312 26.836-14.062 40.195-21.094 15.352-7.9688 26.484-20.742 31.875-37.734 0.82031-2.4609 1.4062-4.9219 2.2266-7.3828 3.8672-12.891 7.6172-25.781 11.484-38.555 7.8516-26.484 15.703-52.969 23.555-79.336-18.867 14.297-37.617 28.711-56.484 43.008h168.4 23.672c-18.867-14.297-37.617-28.711-56.484-43.008 6.6797 22.383 13.242 44.766 19.922 67.266 4.3359 14.531 8.5547 28.945 12.891 43.477 5.8594 19.805 11.367 38.789 31.875 50.156 21.211 11.719 42.891 22.852 64.453 33.75 14.766 7.5 32.695 11.016 48.516 4.6875 4.1016-1.6406 8.2031-3.2812 12.305-4.9219 13.828-5.5078 27.773-11.133 41.602-16.641 24.844-9.9609 49.688-19.922 74.531-29.766-18.984-5.0391-37.969-10.078-56.953-15.117 35.391 43.945 70.664 87.891 106.05 131.84 4.9219 6.0938 9.8438 12.305 14.766 18.398-3.0469-23.672-6.0938-47.344-9.1406-71.016-19.57 25.898-39.258 51.797-58.828 77.695-7.6172 10.078-16.055 19.922-23.086 30.469 0 0.11719-0.11719 0.11719-0.23438 0.23438-1.6406 2.4609 40.898-96.797-2.9297 7.0312-2.9297 7.0312-5.0391 14.766-5.0391 22.617 0 5.2734 1.2891 11.133 2.2266 16.406 0.35156 2.2266 0.82031 4.4531 1.1719 6.6797 1.6406 9.1406 3.2812 18.164 4.9219 27.305 3.0469 17.344 6.2109 34.688 9.2578 51.914 2.4609 13.711 15.352 28.242 26.953 35.039 12.539 7.3828 31.055 10.43 45.117 5.8594 14.18-4.5703 27.891-13.359 35.039-26.953 1.9922-4.6875 3.9844-9.375 5.8594-13.945 2.2266-10.547 2.2266-20.977-0.58594-31.289z"/>
  <path d="m600 716.25c-7.6172 0-15.117-0.46875-22.734-1.5234 5.1562 0.70313 10.43 1.4062 15.586 2.1094-15.703-2.1094-30.938-6.2109-45.469-12.422 4.6875 1.9922 9.375 3.9844 13.945 5.8594-13.711-5.8594-26.602-13.477-38.438-22.5 3.9844 3.0469 7.8516 6.0938 11.836 9.1406-11.719-9.1406-22.148-19.57-31.289-31.289 3.0469 3.9844 6.0938 7.8516 9.1406 11.836-9.1406-11.836-16.641-24.727-22.5-38.438 1.9922 4.6875 3.9844 9.375 5.8594 13.945-6.0938-14.531-10.312-29.766-12.422-45.469 0.70312 5.1562 1.4062 10.43 2.1094 15.586-1.875-15.117-1.875-30.352 0-45.469-0.70312 5.1562-1.4062 10.43-2.1094 15.586 2.1094-15.703 6.2109-30.938 12.422-45.469-1.9922 4.6875-3.9844 9.375-5.8594 13.945 5.8594-13.711 13.477-26.602 22.5-38.438-3.0469 3.9844-6.0938 7.8516-9.1406 11.836 9.1406-11.719 19.57-22.148 31.289-31.289-3.9844 3.0469-7.8516 6.0938-11.836 9.1406 11.836-9.1406 24.727-16.641 38.438-22.5-4.6875 1.9922-9.375 3.9844-13.945 5.8594 14.531-6.0938 29.766-10.312 45.469-12.422-5.1562 0.70312-10.43 1.4062-15.586 2.1094 15.117-1.875 30.352-1.875 45.469 0-5.1562-0.70312-10.43-1.4062-15.586-2.1094 15.703 2.1094 30.938 6.2109 45.469 12.422-4.6875-1.9922-9.375-3.9844-13.945-5.8594 13.711 5.8594 26.602 13.477 38.438 22.5-3.9844-3.0469-7.8516-6.0938-11.836-9.1406 11.719 9.1406 22.148 19.57 31.289 31.289-3.0469-3.9844-6.0938-7.8516-9.1406-11.836 9.1406 11.836 16.641 24.727 22.5 38.438-1.9922-4.6875-3.9844-9.375-5.8594-13.945 6.0938 14.531 10.312 29.766 12.422 45.469-0.70312-5.1562-1.4062-10.43-2.1094-15.586 1.875 15.117 1.875 30.352 0 45.469 0.70312-5.1562 1.4062-10.43 2.1094-15.586-2.1094 15.703-6.2109 30.938-12.422 45.469 1.9922-4.6875 3.9844-9.375 5.8594-13.945-5.8594 13.711-13.477 26.602-22.5 38.438 3.0469-3.9844 6.0938-7.8516 9.1406-11.836-9.1406 11.719-19.57 22.148-31.289 31.289 3.9844-3.0469 7.8516-6.0938 11.836-9.1406-11.836 9.1406-24.727 16.641-38.438 22.5 4.6875-1.9922 9.375-3.9844 13.945-5.8594-14.531 6.0938-29.766 10.312-45.469 12.422 5.1562-0.70313 10.43-1.4062 15.586-2.1094-7.6172 0.9375-15.117 1.4062-22.734 1.5234-15.117 0.11719-30.703 6.4453-41.484 17.109-10.195 10.195-17.812 26.836-17.109 41.484 0.70312 15.117 5.625 30.82 17.109 41.484 11.484 10.547 25.547 17.227 41.484 17.109 23.438-0.11719 47.578-3.3984 69.961-10.781 21.562-7.0312 42.891-16.758 61.289-30 10.781-7.8516 21.562-16.055 31.172-25.312 9.7266-9.375 17.812-19.922 26.016-30.586 13.945-18.281 23.672-38.789 31.641-60.352 8.0859-21.914 11.836-45.938 12.656-69.258 0.82031-23.203-2.2266-47.344-8.5547-69.727-6.2109-21.797-15.586-43.477-28.125-62.461-12.422-18.75-26.953-36.68-44.414-50.859-10.312-8.4375-21.094-16.758-32.578-23.672-11.719-7.0312-24.141-12.188-36.797-17.344-21.797-8.9062-45-12.891-68.438-14.766-45.82-3.6328-94.453 8.7891-133.59 32.578-37.969 22.969-71.367 57.773-89.766 98.438-5.625 12.422-11.016 25.078-14.766 38.203-3.8672 13.711-5.7422 27.891-7.3828 42.07-2.8125 23.555-0.46875 47.344 4.1016 70.43 4.4531 22.383 13.242 44.531 24.258 64.453 10.781 19.57 25.078 38.086 41.25 53.555 32.461 31.055 75 54.492 119.65 61.406 14.062 2.1094 28.008 4.1016 42.305 4.1016 15 0.11719 30.82-6.5625 41.484-17.109 10.195-10.195 17.812-26.836 17.109-41.484-1.2891-31.992-25.664-58.594-58.477-58.711z"/>
 </g>
</svg>
