<?xml version="1.0" encoding="UTF-8"?>
<svg width="1200pt" height="1200pt" version="1.1" viewBox="0 0 1200 1200" xmlns="http://www.w3.org/2000/svg">
 <path d="m1022.7 548.19c26.051-20.449 42.844-52.16 42.844-87.844 0-61.711-50.016-111.73-111.73-111.73-61.699 0-111.73 50.016-111.73 111.73 0 35.684 16.805 67.395 42.844 87.844-56.672 22.664-99.656 72.328-112.95 133.07-25.582-25.863-57.012-45.797-92.039-58.102 41.473-26.449 69.047-72.75 69.047-125.57 0-82.277-66.703-148.97-148.97-148.97s-148.97 66.691-148.97 148.97c0 52.816 27.574 99.117 69.047 125.57-35.027 12.305-66.457 32.238-92.051 58.102-13.277-60.75-56.262-110.4-112.93-133.07 26.039-20.449 42.832-52.16 42.832-87.844 0-61.711-50.016-111.73-111.71-111.73-61.711 0-111.73 50.016-111.73 111.73 0 35.684 16.793 67.395 42.844 87.844-68.648 27.457-117.33 94.512-117.33 172.84h37.242c0-82.137 66.82-148.96 148.97-148.96 82.137 0 148.96 66.82 148.96 148.96v1.9336c-23.449 37.277-37.242 81.223-37.242 128.41h37.242c0-112.93 91.887-204.83 204.83-204.83s204.83 91.898 204.83 204.83h37.23c0-47.191-13.781-91.137-37.23-128.41v-1.9336c0-82.137 66.82-148.96 148.96-148.96 82.148 0 148.97 66.82 148.97 148.96h37.242c0-78.328-48.68-145.38-117.33-172.84zm-776.46-13.359c-41.074 0-74.484-33.422-74.484-74.484 0-41.074 33.41-74.484 74.484-74.484 41.062 0 74.473 33.41 74.473 74.484 0 41.062-33.41 74.484-74.473 74.484zm353.79 74.473c-61.605 0-111.73-50.109-111.73-111.71 0-61.605 50.121-111.73 111.73-111.73s111.73 50.121 111.73 111.73c0 61.605-50.121 111.71-111.73 111.71zm353.79-74.473c-41.062 0-74.484-33.422-74.484-74.484 0-41.074 33.422-74.484 74.484-74.484 41.074 0 74.484 33.41 74.484 74.484 0 41.062-33.41 74.484-74.484 74.484z" fill="#fff"/>
</svg>
